<?xml version="1.0" encoding="UTF-8" standalone="no"?>
<!-- Created with Inkscape (http://www.inkscape.org/) -->

<svg
   xmlns:dc="http://purl.org/dc/elements/1.1/"
   xmlns:cc="http://creativecommons.org/ns#"
   xmlns:rdf="http://www.w3.org/1999/02/22-rdf-syntax-ns#"
   xmlns:svg="http://www.w3.org/2000/svg"
   xmlns="http://www.w3.org/2000/svg"
   xmlns:sodipodi="http://sodipodi.sourceforge.net/DTD/sodipodi-0.dtd"
   xmlns:inkscape="http://www.inkscape.org/namespaces/inkscape"
   width="48"
   height="48"
   id="svg2"
   version="1.1"
   inkscape:version="0.48.1 r9760"
   sodipodi:docname="drawing.svg">
  <defs
     id="defs4" />
  <sodipodi:namedview
     id="base"
     pagecolor="#ffffff"
     bordercolor="#666666"
     borderopacity="1.0"
     inkscape:pageopacity="0.0"
     inkscape:pageshadow="2"
     inkscape:zoom="3.959798"
     inkscape:cx="18.142857"
     inkscape:cy="65.724606"
     inkscape:document-units="px"
     inkscape:current-layer="layer1"
     showgrid="true"
     inkscape:window-width="1010"
     inkscape:window-height="737"
     inkscape:window-x="34"
     inkscape:window-y="6"
     inkscape:window-maximized="0">
    <inkscape:grid
       type="xygrid"
       id="grid3012"
       empspacing="5"
       visible="true"
       enabled="true"
       snapvisiblegridlinesonly="true"
       dotted="false" />
  </sodipodi:namedview>
  <metadata
     id="metadata7">
    <rdf:RDF>
      <cc:Work
         rdf:about="">
        <dc:format>image/svg+xml</dc:format>
        <dc:type
           rdf:resource="http://purl.org/dc/dcmitype/StillImage" />
        <dc:title></dc:title>
      </cc:Work>
    </rdf:RDF>
  </metadata>
  <g
     inkscape:label="Layer 1"
     inkscape:groupmode="layer"
     id="layer1"
     transform="translate(0,-1004.3622)">
    <g
       id="g3179"
       transform="matrix(1.6666667,0,0,1.5,6.6666665,-452.4311)">
      <path
         transform="translate(0,1004.3622)"
         d="m 10,-17 c 0,5.522847 -2.2385763,10 -5,10 -2.7614237,0 -5,-4.477153 -5,-10 0,-5.522847 2.2385763,-10 5,-10 2.7614237,0 5,4.477153 5,10 z"
         sodipodi:ry="10"
         sodipodi:rx="5"
         sodipodi:cy="-17"
         sodipodi:cx="5"
         id="path3173"
         style="opacity:0.98826982;fill:#0000ff;fill-opacity:0.71014494;stroke:#000000;stroke-width:1;stroke-linecap:square;stroke-linejoin:round;stroke-miterlimit:4;stroke-opacity:1;stroke-dasharray:none"
         sodipodi:type="arc" />
      <path
         transform="translate(0,1004.3622)"
         d="m 15,-14.5 c 0,4.142136 -2.238576,7.5 -5,7.5 -2.7614237,0 -5,-3.357864 -5,-7.5 0,-4.142136 2.2385763,-7.5 5,-7.5 2.761424,0 5,3.357864 5,7.5 z"
         sodipodi:ry="7.5"
         sodipodi:rx="5"
         sodipodi:cy="-14.5"
         sodipodi:cx="10"
         id="path3175"
         style="opacity:0.98826982;fill:#0000ff;fill-opacity:0.71014494;stroke:#000000;stroke-width:1;stroke-linecap:square;stroke-linejoin:round;stroke-miterlimit:4;stroke-opacity:1;stroke-dasharray:none"
         sodipodi:type="arc" />
      <path
         transform="translate(-5,999.3622)"
         d="m 25,-7 c 0,2.7614237 -2.238576,5 -5,5 -2.761424,0 -5,-2.2385763 -5,-5 0,-2.7614237 2.238576,-5 5,-5 2.761424,0 5,2.2385763 5,5 z"
         sodipodi:ry="5"
         sodipodi:rx="5"
         sodipodi:cy="-7"
         sodipodi:cx="20"
         id="path3177"
         style="opacity:0.98826982;fill:#0000ff;fill-opacity:0.71014494;stroke:#000000;stroke-width:1;stroke-linecap:square;stroke-linejoin:round;stroke-miterlimit:4;stroke-opacity:1;stroke-dasharray:none"
         sodipodi:type="arc" />
    </g>
  </g>
</svg>
