<?xml version="1.0" encoding="UTF-8" standalone="no"?>
<!-- Created with Inkscape (http://www.inkscape.org/) -->

<svg
   xmlns:dc="http://purl.org/dc/elements/1.1/"
   xmlns:cc="http://creativecommons.org/ns#"
   xmlns:rdf="http://www.w3.org/1999/02/22-rdf-syntax-ns#"
   xmlns:svg="http://www.w3.org/2000/svg"
   xmlns="http://www.w3.org/2000/svg"
   xmlns:xlink="http://www.w3.org/1999/xlink"
   xmlns:sodipodi="http://sodipodi.sourceforge.net/DTD/sodipodi-0.dtd"
   xmlns:inkscape="http://www.inkscape.org/namespaces/inkscape"
   width="210mm"
   height="297mm"
   id="svg2"
   version="1.1"
   inkscape:version="0.47 r22583"
   sodipodi:docname="worksite-dot.svg"
   inkscape:export-filename="/Users/gregoirepaccoud/Documents/WEB/geowiki/GWrepoLocal1/earthbuilding/geodata/static/img/worksite_dot-hover.png"
   inkscape:export-xdpi="7.0300002"
   inkscape:export-ydpi="7.0300002">
  <defs
     id="defs4">
    <linearGradient
       id="linearGradient3711">
      <stop
         style="stop-color:#000000;stop-opacity:1;"
         offset="0"
         id="stop3713" />
      <stop
         style="stop-color:#000000;stop-opacity:0;"
         offset="1"
         id="stop3715" />
    </linearGradient>
    <linearGradient
       id="linearGradient3620">
      <stop
         style="stop-color:#bbad8d;stop-opacity:0.79020977;"
         offset="0"
         id="stop3622" />
      <stop
         id="stop3630"
         offset="0.51282054"
         style="stop-color:#967327;stop-opacity:0.8741259;" />
      <stop
         style="stop-color:#caa75a;stop-opacity:1;"
         offset="1"
         id="stop3624" />
    </linearGradient>
    <inkscape:perspective
       sodipodi:type="inkscape:persp3d"
       inkscape:vp_x="0 : 526.18109 : 1"
       inkscape:vp_y="0 : 1000 : 0"
       inkscape:vp_z="744.09448 : 526.18109 : 1"
       inkscape:persp3d-origin="372.04724 : 350.78739 : 1"
       id="perspective10" />
    <inkscape:perspective
       id="perspective3674"
       inkscape:persp3d-origin="0.5 : 0.33333333 : 1"
       inkscape:vp_z="1 : 0.5 : 1"
       inkscape:vp_y="0 : 1000 : 0"
       inkscape:vp_x="0 : 0.5 : 1"
       sodipodi:type="inkscape:persp3d" />
    <clipPath
       clipPathUnits="userSpaceOnUse"
       id="clipPath3688">
      <path
         sodipodi:nodetypes="cccccccccccccccccccccccccccc"
         id="path3690"
         d="m 300.86268,445.47639 c -3.62566,-6.12297 -11.11344,-8.32456 -14.7391,-11.39366 -8.55495,-4.2375 -9.78006,-7.31833 -23.98086,-10.53804 l -18.57111,-7.58943 c -6.36418,-1.24334 -32.77432,-6.3631 -33.58683,-16.31069 2.68338,-6.99377 14.92813,-5.7433 23.80827,-2.093 10.62498,4.91594 22.02238,2.15944 29.55766,2.62639 7.00578,-2.88692 6.20236,-12.61266 4.2949,-16.47856 l -3.27598,-8.26366 c -6.51519,-10.51277 -23.08787,-27.5157 -35.59735,-38.79202 -5.46737,-7.63257 -7.59069,-12.92128 -5.96302,-17.54807 5.40666,0.76403 5.64379,-2.42418 17.53573,6.58222 11.20657,9.44868 30.87946,31.7951 37.48185,28.72782 0.26081,-13.08367 -5.82609,-19.89741 -14.72542,-39.77222 -1.88201,-5.58615 -16.88373,-23.39473 -11.24673,-32.69717 7.90836,-3.68762 10.21431,2.74716 17.19607,11.3774 7.10249,12.54981 22.27641,42.73425 29.80417,42.99428 6.20204,-2.1084 -4.40317,-29.54324 -7.89025,-46.96221 -1.42703,-10.98891 1.74889,-12.67716 4.42505,-13.26595 6.92707,-0.49529 8.58628,9.13933 11.46914,15.64007 4.68485,18.36675 11.13073,50.09638 15.17159,47.21447 5.33563,-6.72939 5.38747,-16.8587 7.26193,-32.7118 1.55025,-6.05802 2.62518,-17.91491 7.26078,-17.87314 5.87478,4.12827 5.15845,9.18896 6.10243,15.26687 0.30405,22.52738 -2.51463,30.92316 2.2776,45.98579 1.2899,27.96538 12.71912,42.3986 20.31206,80.60063 l -53.98496,32.74594 -10.39762,-17.47226 z"
         style="fill:#e5d77f;fill-opacity:1;stroke:#e6e6e6;stroke-width:1.11816895;stroke-linecap:butt;stroke-linejoin:miter;stroke-miterlimit:4;stroke-opacity:1;stroke-dasharray:none" />
    </clipPath>
    <radialGradient
       inkscape:collect="always"
       xlink:href="#linearGradient3620"
       id="radialGradient3698"
       cx="290.35715"
       cy="357.00504"
       fx="290.35715"
       fy="357.00504"
       r="105.01867"
       gradientUnits="userSpaceOnUse" />
    <radialGradient
       inkscape:collect="always"
       xlink:href="#linearGradient3711"
       id="radialGradient3717"
       cx="345"
       cy="408.79074"
       fx="345"
       fy="408.79074"
       r="122.14286"
       gradientUnits="userSpaceOnUse" />
  </defs>
  <sodipodi:namedview
     id="base"
     pagecolor="#ffffff"
     bordercolor="#666666"
     borderopacity="1.0"
     inkscape:pageopacity="0.0"
     inkscape:pageshadow="2"
     inkscape:zoom="0.98994949"
     inkscape:cx="36.066484"
     inkscape:cy="580.11182"
     inkscape:document-units="px"
     inkscape:current-layer="layer2"
     showgrid="false"
     inkscape:snap-global="false"
     inkscape:window-width="1276"
     inkscape:window-height="756"
     inkscape:window-x="173"
     inkscape:window-y="113"
     inkscape:window-maximized="0" />
  <metadata
     id="metadata7">
    <rdf:RDF>
      <cc:Work
         rdf:about="">
        <dc:format>image/svg+xml</dc:format>
        <dc:type
           rdf:resource="http://purl.org/dc/dcmitype/StillImage" />
        <dc:title></dc:title>
      </cc:Work>
    </rdf:RDF>
  </metadata>
  <g
     inkscape:groupmode="layer"
     id="layer2"
     inkscape:label="Calque"
     style="display:inline">
    <path
       sodipodi:type="arc"
       style="fill:url(#radialGradient3698);fill-opacity:1.0;stroke:#000000;stroke-width:5.28885422000000016;stroke-miterlimit:4;stroke-opacity:0.94181817999999995;stroke-dasharray:none"
       id="path3613-7"
       sodipodi:cx="290.35715"
       sodipodi:cy="357.00504"
       sodipodi:rx="99.64286"
       sodipodi:ry="99.64286"
       d="m 390.00001,357.00504 a 99.64286,99.64286 0 1 1 -199.28572,0 99.64286,99.64286 0 1 1 199.28572,0 z"
       transform="matrix(0.93824307,0,0,0.95257998,71.482686,66.679369)"
       mask="none" />
  </g>
  <g
     inkscape:label="Calque 1"
     inkscape:groupmode="layer"
     id="layer1"
     style="opacity:0.55;display:inline">
    <path
       sodipodi:type="arc"
       style="fill:url(#radialGradient3717);fill-opacity:1;fill-rule:evenodd;stroke:#000000;stroke-width:0;stroke-linecap:butt;stroke-linejoin:miter;stroke-miterlimit:4;stroke-opacity:1;stroke-dasharray:none"
       id="path2816"
       sodipodi:cx="345"
       sodipodi:cy="408.79074"
       sodipodi:rx="122.14286"
       sodipodi:ry="122.14286"
       d="m 467.14286,408.79074 a 122.14286,122.14286 0 1 1 -244.28572,0 122.14286,122.14286 0 1 1 244.28572,0 z"
       transform="matrix(1,0,0,-1,0,815.58148)"
       inkscape:export-filename="/Users/gregoirepaccoud/Documents/WEB/geowiki/GWrepoLocal1/earthbuilding/geodata/static/img/worksite.png"
       inkscape:export-xdpi="11.052632"
       inkscape:export-ydpi="11.052632" />
  </g>
</svg>
