<?xml version="1.0" encoding="UTF-8" standalone="no"?>
<!-- Created with Inkscape (http://www.inkscape.org/) -->

<svg
   xmlns:dc="http://purl.org/dc/elements/1.1/"
   xmlns:cc="http://creativecommons.org/ns#"
   xmlns:rdf="http://www.w3.org/1999/02/22-rdf-syntax-ns#"
   xmlns:svg="http://www.w3.org/2000/svg"
   xmlns="http://www.w3.org/2000/svg"
   xmlns:sodipodi="http://sodipodi.sourceforge.net/DTD/sodipodi-0.dtd"
   xmlns:inkscape="http://www.inkscape.org/namespaces/inkscape"
   id="svg2"
   sodipodi:version="0.32"
   inkscape:version="0.48.2 r9819"
   width="225"
   height="225"
   version="1.0"
   sodipodi:docname="Copia di World_Heritage_Logo.svg"
   inkscape:output_extension="org.inkscape.output.svg.inkscape">
  <title
     id="title2983">UNESCO World Heritage Logo</title>
  <metadata
     id="metadata7">
    <rdf:RDF>
      <cc:Work
         rdf:about="">
        <dc:format>image/svg+xml</dc:format>
        <dc:type
           rdf:resource="http://purl.org/dc/dcmitype/StillImage" />
        <dc:title>UNESCO World Heritage Logo</dc:title>
      </cc:Work>
    </rdf:RDF>
  </metadata>
  <defs
     id="defs5">
    <inkscape:perspective
       sodipodi:type="inkscape:persp3d"
       inkscape:vp_x="0 : 526.18109 : 1"
       inkscape:vp_y="0 : 1000 : 0"
       inkscape:vp_z="744.09448 : 526.18109 : 1"
       inkscape:persp3d-origin="372.04724 : 350.78739 : 1"
       id="perspective9" />
  </defs>
  <sodipodi:namedview
     inkscape:window-height="967"
     inkscape:window-width="1280"
     inkscape:pageshadow="2"
     inkscape:pageopacity="0.0"
     guidetolerance="10.0"
     gridtolerance="10.0"
     objecttolerance="10.0"
     borderopacity="1.0"
     bordercolor="#666666"
     pagecolor="#ffffff"
     id="base"
     showgrid="false"
     inkscape:zoom="2.2151436"
     inkscape:cx="205.48152"
     inkscape:cy="156.48791"
     inkscape:window-x="-4"
     inkscape:window-y="-4"
     inkscape:current-layer="svg2"
     inkscape:window-maximized="1" />
  <path
     style="fill:#5b92e5"
     d="M 81.403264,220.69948 C 52.374843,212.01891 27.743046,191.66047 14.169134,165.12972 5.336212,147.86543 1.805752,133.00038 1.805752,113.07352 1.805752,83.231083 11.959638,57.919811 32.649381,36.187544 49.493833,18.494326 71.452644,6.8315353 95.123432,3.0062551 106.98988,1.0885985 128.18542,2.202147 140.18109,5.3734442 c 18.57335,4.9102408 35.8824,14.9531988 49.92453,28.9669278 42.49042,42.404478 43.7315,111.369948 2.78933,154.999648 -13.58319,14.47483 -27.84203,23.82096 -45.62728,29.90699 -15.92642,5.44993 -25.50764,4.9769 -29.39338,-1.45119 -1.77447,-2.93549 -1.92001,-5.33814 -1.90548,-31.45702 l 0.0157,-28.27877 20.97104,-21.71406 c 11.53407,-11.94274 20.98689,-21.94501 21.00628,-22.22727 0.0194,-0.28228 -10.32867,-10.9601 -22.99569,-23.728512 l -23.03093,-23.21529 -23.270079,23.47296 -23.270068,23.472972 21.270358,21.47324 21.270359,21.47322 -0.0318,29.7851 c -0.035,32.74702 0.0749,32.13889 -6.29629,34.82417 -5.009811,2.11148 -10.814753,1.83075 -20.204386,-0.97708 z M 87.873341,183.56143 87.835394,168.15959 61.37642,140.89077 34.917445,113.62195 72.674411,75.494847 C 93.440751,54.524942 110.76432,37.48193 111.17124,37.621484 c 0.40691,0.139555 17.7798,17.421654 38.60643,38.404661 l 37.86657,38.150945 -25.83708,25.93805 -25.83708,25.93805 0,16.52309 0,16.5231 2.25276,-0.7018 c 24.04753,-7.49154 45.14509,-25.85759 55.2233,-48.07354 5.65588,-12.46755 7.06675,-19.68159 7.07918,-36.19711 0.009,-12.17608 -0.37902,-16.091312 -2.3031,-23.229007 -7.00494,-25.986095 -24.31095,-46.955592 -48.29929,-58.523727 -13.82452,-6.666739 -22.0728,-8.45586 -38.98351,-8.45586 -11.697823,0 -16.031592,0.417341 -22.311125,2.148556 C 50.8465,36.48302 24.20574,68.967036 21.210668,108.27159 c -2.418033,31.73202 14.716766,63.25574 43.91886,80.79967 6.681195,4.0139 19.109981,9.6832 21.530136,9.82082 0.951155,0.0541 1.242432,-3.62538 1.213637,-15.33065 z"
     id="path2384"
     inkscape:connector-curvature="0"
     sodipodi:nodetypes="ssssssssssscssscccccsssscccssscccccsssssssssss" />
</svg>
